<svg width="642" height="642" viewBox="0 0 642 642" fill="none" xmlns="http://www.w3.org/2000/svg">
<rect width="642" height="642" fill="#181212"/>
<rect x="319" y="429.694" width="4.69611" height="1" transform="rotate(-35 319 429.694)" fill="#181212"/>
<path d="M343.92 426.617L320.016 410.841C319.7 410.632 319.293 410.62 318.965 410.81L291.565 426.673C291.221 426.872 290.793 426.849 290.473 426.615L152.189 325.504C151.792 325.214 151.665 324.678 151.889 324.24L171.7 285.585C171.882 285.23 171.836 284.801 171.582 284.493L158.203 268.246C158.071 268.086 157.992 267.889 157.977 267.682L148.139 129.95C148.081 129.137 148.969 128.6 149.663 129.029L265.668 200.795C265.881 200.927 266.142 200.973 266.388 200.925C308.391 192.849 332.105 192.589 374.109 200.922C374.357 200.971 374.62 200.926 374.835 200.793L490.815 129.042C491.513 128.611 492.405 129.157 492.338 129.975L481.03 267.634C481.011 267.87 480.908 268.092 480.741 268.259L464.51 284.49C464.205 284.795 464.13 285.26 464.322 285.645L483.622 324.244C483.84 324.681 483.712 325.211 483.318 325.499L345.061 426.59C344.724 426.836 344.269 426.847 343.92 426.617Z" stroke="white" stroke-width="10"/>
<ellipse cx="259.5" cy="327.5" rx="18" ry="17.5" fill="#6DA963"/>
<ellipse cx="380.5" cy="327.5" rx="18" ry="17.5" fill="#6DA963"/>
<path d="M185.625 500.5L204.75 550.375L222.25 500.5H232L210.125 563H200.375L182 515.625L163.625 563H153.875L132 500.5H141.75L159.25 550.375L178.375 500.5H185.625ZM297.688 535.125H247.813C248.063 541.542 249.854 546.542 253.188 550.125C256.604 553.708 261.813 555.5 268.813 555.5C272.146 555.5 274.938 555.125 277.188 554.375C279.438 553.625 281.313 552.625 282.813 551.375C284.396 550.125 285.771 548.792 286.938 547.375L295.063 552.25C293.396 554.583 291.438 556.667 289.188 558.5C286.938 560.333 284.146 561.792 280.813 562.875C277.563 563.875 273.563 564.375 268.813 564.375C261.563 564.375 255.688 563 251.188 560.25C246.688 557.5 243.354 553.708 241.188 548.875C239.104 543.958 238.063 538.25 238.063 531.75C238.063 525.333 239.063 519.667 241.063 514.75C243.146 509.833 246.396 506 250.813 503.25C255.313 500.5 261.146 499.125 268.312 499.125C275.396 499.125 281.063 500.5 285.313 503.25C289.646 506 292.771 509.833 294.687 514.75C296.688 519.583 297.688 525.25 297.688 531.75V535.125ZM247.938 527.25H287.688C287.688 521.5 286.104 516.875 282.938 513.375C279.771 509.792 274.896 508 268.312 508C261.563 508 256.604 509.708 253.438 513.125C250.354 516.542 248.521 521.25 247.938 527.25ZM331.36 564.375C325.694 564.375 321.194 563.5 317.86 561.75C314.527 559.917 312.11 557.583 310.61 554.75C309.194 551.917 308.485 548.958 308.485 545.875V544.25C308.485 542 308.944 539.625 309.86 537.125C310.777 534.625 312.485 532.417 314.985 530.5C317.569 528.5 321.277 527.25 326.11 526.75L341.735 524.875C345.735 524.458 348.527 523.958 350.11 523.375C351.694 522.708 352.485 521.542 352.485 519.875C352.485 515.875 351.027 512.917 348.11 511C345.194 509 340.985 508 335.485 508C332.652 508 330.069 508.292 327.735 508.875C325.485 509.458 323.527 510.375 321.86 511.625C320.277 512.875 319.069 514.5 318.235 516.5L309.235 513.5C310.235 510.917 311.652 508.708 313.485 506.875C315.402 504.958 317.61 503.458 320.11 502.375C322.694 501.208 325.402 500.375 328.235 499.875C331.069 499.375 333.902 499.125 336.735 499.125C343.069 499.292 348.11 500.333 351.86 502.25C355.694 504.083 358.402 506.917 359.985 510.75C361.652 514.5 362.485 519.333 362.485 525.25V563H352.985V553.5C352.069 555.333 350.569 557.083 348.485 558.75C346.402 560.417 343.86 561.792 340.86 562.875C337.944 563.875 334.777 564.375 331.36 564.375ZM331.235 555.5C336.152 555.5 340.194 554.625 343.36 552.875C346.61 551.125 348.985 549.042 350.485 546.625C352.069 544.125 352.902 541.75 352.985 539.5C352.985 538 352.985 536.292 352.985 534.375C352.985 532.458 352.985 531 352.985 530C352.319 530.75 351.11 531.333 349.36 531.75C347.694 532.167 345.319 532.542 342.235 532.875L327.985 534.625C324.569 535.042 322.027 536.083 320.36 537.75C318.777 539.417 317.985 541.542 317.985 544.125V545.125C317.985 546.875 318.36 548.542 319.11 550.125C319.944 551.708 321.319 553 323.235 554C325.152 555 327.819 555.5 331.235 555.5ZM504.597 535.125H454.722C454.972 541.542 456.763 546.542 460.097 550.125C463.513 553.708 468.722 555.5 475.722 555.5C479.055 555.5 481.847 555.125 484.097 554.375C486.347 553.625 488.222 552.625 489.722 551.375C491.305 550.125 492.68 548.792 493.847 547.375L501.972 552.25C500.305 554.583 498.347 556.667 496.097 558.5C493.847 560.333 491.055 561.792 487.722 562.875C484.472 563.875 480.472 564.375 475.722 564.375C468.472 564.375 462.597 563 458.097 560.25C453.597 557.5 450.263 553.708 448.097 548.875C446.013 543.958 444.972 538.25 444.972 531.75C444.972 525.333 445.972 519.667 447.972 514.75C450.055 509.833 453.305 506 457.722 503.25C462.222 500.5 468.055 499.125 475.222 499.125C482.305 499.125 487.972 500.5 492.222 503.25C496.555 506 499.68 509.833 501.597 514.75C503.597 519.583 504.597 525.25 504.597 531.75V535.125ZM454.847 527.25H494.597C494.597 521.5 493.013 516.875 489.847 513.375C486.68 509.792 481.805 508 475.222 508C468.472 508 463.513 509.708 460.347 513.125C457.263 516.542 455.43 521.25 454.847 527.25Z" fill="white"/>
<path d="M438.854 500.5L410.479 563H400.854L372.479 500.5H381.979L405.729 552.625L429.354 500.5H438.854Z" fill="#6DA963"/>
</svg>
