<svg width="400" height="340" viewBox="120 110 400 340" fill="none" xmlns="http://www.w3.org/2000/svg">
  <path d="M343.92 426.617L320.016 410.841C319.7 410.632 319.293 410.62 318.965 410.81L291.565 426.673C291.221 426.872 290.793 426.849 290.473 426.615L152.189 325.504C151.792 325.214 151.665 324.678 151.889 324.24L171.7 285.585C171.882 285.23 171.836 284.801 171.582 284.493L158.203 268.246C158.071 268.086 157.992 267.889 157.977 267.682L148.139 129.95C148.081 129.137 148.969 128.6 149.663 129.029L265.668 200.795C265.881 200.927 266.142 200.973 266.388 200.925C308.391 192.849 332.105 192.589 374.109 200.922C374.357 200.971 374.62 200.926 374.835 200.793L490.815 129.042C491.513 128.611 492.405 129.157 492.338 129.975L481.03 267.634C481.011 267.87 480.908 268.092 480.741 268.259L464.51 284.49C464.205 284.795 464.13 285.26 464.322 285.645L483.622 324.244C483.84 324.681 483.712 325.211 483.318 325.499L345.061 426.59C344.724 426.836 344.269 426.847 343.92 426.617Z" stroke="#F4F7F0" stroke-width="10"/>
  <ellipse cx="259.5" cy="327.5" rx="18" ry="17.5" fill="#B7FF2A"/>
  <ellipse cx="380.5" cy="327.5" rx="18" ry="17.5" fill="#B7FF2A"/>
</svg>
